<?xml version="1.0" encoding="UTF-8"?>
<svg width="900" height="650" viewBox="0 0 900 650" fill="none" xmlns="http://www.w3.org/2000/svg">
  <defs>
    <linearGradient id="grad" x1="0" y1="0" x2="1" y2="1">
      <stop offset="0%" stop-color="#0D9488"/>
      <stop offset="100%" stop-color="#0D3B66"/>
    </linearGradient>
  </defs>
  <!-- Brain silhouette -->
  <path d="M460,90 C520,60 600,70 650,110 C710,150 750,220 740,280 C780,320 780,390 740,430 C700,470 640,490 600,470
           C570,540 500,580 420,570 C380,610 320,620 270,590 C240,630 180,630 150,590 C90,520 100,440 140,410 C90,360 110,280 170,250
           C170,210 220,170 280,170 C290,130 330,100 390,100 C410,80 440,80 460,90 Z"
        fill="url(#grad)" opacity="0.95"/>
  <!-- Network nodes + edges -->
  <g stroke="white" stroke-width="2" opacity="0.7">
    <line x1="274" y1="162" x2="190" y2="197" />
    <line x1="274" y1="162" x2="380" y2="322" />
    <line x1="274" y1="162" x2="492" y2="178" />
    <line x1="388" y1="221" x2="549" y2="199" />
    <line x1="264" y1="496" x2="241" y2="269" />
    <line x1="718" y1="194" x2="711" y2="284" />
    <line x1="383" y1="269" x2="482" y2="258" />
    <line x1="677" y1="458" x2="630" y2="424" />
    <line x1="677" y1="458" x2="460" y2="471" />
    <line x1="677" y1="458" x2="671" y2="352" />
    <line x1="718" y1="364" x2="530" y2="445" />
    <line x1="718" y1="364" x2="633" y2="344" />
    <line x1="385" y1="379" x2="263" y2="344" />
    <line x1="444" y1="153" x2="539" y2="331" />
    <line x1="592" y1="324" x2="711" y2="284" />
    <line x1="380" y1="322" x2="539" y2="331" />
    <line x1="264" y1="197" x2="240" y2="432" />
    <line x1="430" y1="172" x2="482" y2="258" />
    <line x1="460" y1="471" x2="436" y2="477" />
    <line x1="530" y1="445" x2="393" y2="298" />
    <line x1="530" y1="445" x2="444" y2="382" />
    <line x1="530" y1="445" x2="335" y2="423" />
    <line x1="530" y1="445" x2="482" y2="258" />
    <line x1="530" y1="445" x2="671" y2="352" />
    <line x1="231" y1="173" x2="431" y2="221" />
    <line x1="393" y1="298" x2="241" y2="269" />
    <line x1="444" y1="382" x2="410" y2="233" />
    <line x1="539" y1="331" x2="671" y2="352" />
    <line x1="539" y1="331" x2="629" y2="223" />
    <line x1="374" y1="493" x2="433" y2="509" />
    <line x1="433" y1="509" x2="376" y2="440" />
    <line x1="410" y1="233" x2="436" y2="477" />
    <line x1="410" y1="233" x2="492" y2="178" />
    <line x1="492" y1="178" x2="434" y2="183" />
    <circle cx="274" cy="162" r="6" fill="white"/>
    <circle cx="441" cy="275" r="6" fill="white"/>
    <circle cx="388" cy="221" r="6" fill="white"/>
    <circle cx="264" cy="496" r="6" fill="white"/>
    <circle cx="718" cy="194" r="6" fill="white"/>
    <circle cx="592" cy="166" r="6" fill="white"/>
    <circle cx="190" cy="197" r="6" fill="white"/>
    <circle cx="383" cy="269" r="6" fill="white"/>
    <circle cx="677" cy="458" r="6" fill="white"/>
    <circle cx="187" cy="437" r="6" fill="white"/>
    <circle cx="363" cy="516" r="6" fill="white"/>
    <circle cx="718" cy="364" r="6" fill="white"/>
    <circle cx="385" cy="379" r="6" fill="white"/>
    <circle cx="444" cy="153" r="6" fill="white"/>
    <circle cx="323" cy="507" r="6" fill="white"/>
    <circle cx="592" cy="324" r="6" fill="white"/>
    <circle cx="444" cy="229" r="6" fill="white"/>
    <circle cx="380" cy="322" r="6" fill="white"/>
    <circle cx="264" cy="197" r="6" fill="white"/>
    <circle cx="549" cy="199" r="6" fill="white"/>
    <circle cx="527" cy="326" r="6" fill="white"/>
    <circle cx="430" cy="172" r="6" fill="white"/>
    <circle cx="630" cy="424" r="6" fill="white"/>
    <circle cx="287" cy="343" r="6" fill="white"/>
    <circle cx="240" cy="432" r="6" fill="white"/>
    <circle cx="460" cy="471" r="6" fill="white"/>
    <circle cx="530" cy="445" r="6" fill="white"/>
    <circle cx="356" cy="510" r="6" fill="white"/>
    <circle cx="231" cy="173" r="6" fill="white"/>
    <circle cx="393" cy="298" r="6" fill="white"/>
    <circle cx="241" cy="269" r="6" fill="white"/>
    <circle cx="263" cy="344" r="6" fill="white"/>
    <circle cx="444" cy="382" r="6" fill="white"/>
    <circle cx="533" cy="233" r="6" fill="white"/>
    <circle cx="539" cy="331" r="6" fill="white"/>
    <circle cx="374" cy="493" r="6" fill="white"/>
    <circle cx="433" cy="509" r="6" fill="white"/>
    <circle cx="233" cy="461" r="6" fill="white"/>
    <circle cx="335" cy="423" r="6" fill="white"/>
    <circle cx="410" cy="233" r="6" fill="white"/>
    <circle cx="633" cy="344" r="6" fill="white"/>
    <circle cx="436" cy="477" r="6" fill="white"/>
    <circle cx="384" cy="500" r="6" fill="white"/>
    <circle cx="492" cy="178" r="6" fill="white"/>
    <circle cx="394" cy="166" r="6" fill="white"/>
    <circle cx="483" cy="355" r="6" fill="white"/>
    <circle cx="434" cy="183" r="6" fill="white"/>
    <circle cx="376" cy="440" r="6" fill="white"/>
    <circle cx="482" cy="258" r="6" fill="white"/>
    <circle cx="671" cy="352" r="6" fill="white"/>
    <circle cx="629" cy="223" r="6" fill="white"/>
    <circle cx="431" cy="221" r="6" fill="white"/>
    <circle cx="412" cy="437" r="6" fill="white"/>
    <circle cx="711" cy="284" r="6" fill="white"/>
    <circle cx="598" cy="448" r="6" fill="white"/>
  </g>
</svg>
